<svg id="svg" version="1.1" xmlns="http://www.w3.org/2000/svg" xmlns:xlink="http://www.w3.org/1999/xlink" width="400" height="400" viewBox="0, 0, 400,400"><g id="svgg"><path id="path0" d="M254.000 87.341 C 254.000 87.669,254.426 88.447,254.947 89.069 C 257.364 91.955,260.873 98.172,261.794 101.200 C 261.961 101.750,262.230 102.380,262.392 102.600 C 262.554 102.820,262.994 104.260,263.370 105.800 C 263.746 107.340,264.222 109.252,264.427 110.048 C 265.735 115.119,265.713 129.745,264.387 136.434 C 264.151 137.625,263.691 139.950,263.364 141.600 C 261.162 152.739,256.126 165.220,250.211 174.200 C 247.332 178.570,246.966 179.468,247.395 181.107 C 247.553 181.708,247.770 183.145,247.878 184.300 C 247.986 185.455,248.221 186.400,248.400 186.400 C 248.579 186.400,248.854 188.110,249.010 190.200 C 249.167 192.290,249.454 194.000,249.648 194.000 C 249.841 194.000,250.000 194.900,250.000 196.000 C 250.000 197.100,250.159 198.000,250.352 198.000 C 250.546 198.000,250.833 199.710,250.990 201.800 C 251.146 203.890,251.411 205.600,251.578 205.600 C 251.745 205.600,252.006 207.516,252.157 209.857 C 252.309 212.198,252.605 214.436,252.816 214.830 C 253.027 215.225,253.200 216.249,253.200 217.107 C 253.200 217.965,253.335 218.801,253.500 218.965 C 253.665 219.129,254.015 220.914,254.277 222.931 C 254.540 224.949,255.041 228.400,255.391 230.600 C 255.741 232.800,256.131 235.275,256.256 236.100 L 256.484 237.600 234.419 237.600 L 212.355 237.600 213.077 236.300 C 213.475 235.585,213.890 234.910,214.000 234.800 C 214.110 234.690,214.515 234.015,214.900 233.300 C 215.285 232.585,215.915 231.415,216.300 230.700 C 216.685 229.985,217.121 229.309,217.268 229.196 C 217.416 229.084,217.670 228.460,217.833 227.809 C 217.997 227.159,218.468 226.264,218.881 225.821 C 219.293 225.378,219.734 224.607,219.859 224.108 C 219.984 223.609,220.228 223.200,220.400 223.200 C 220.572 223.200,220.826 222.750,220.964 222.200 C 221.102 221.650,221.392 221.200,221.608 221.200 C 221.823 221.200,222.000 220.930,222.000 220.600 C 222.000 220.270,222.166 220.000,222.368 220.000 C 222.571 220.000,222.855 219.460,223.000 218.800 C 223.145 218.140,223.389 217.600,223.541 217.600 C 223.877 217.600,226.400 212.710,226.400 212.059 C 226.400 211.807,226.580 211.600,226.800 211.600 C 227.020 211.600,227.200 211.330,227.200 211.000 C 227.200 210.670,227.377 210.400,227.592 210.400 C 227.808 210.400,228.098 209.950,228.236 209.400 C 228.374 208.850,228.647 208.400,228.843 208.400 C 229.040 208.400,229.200 208.223,229.200 208.006 C 229.200 207.789,229.740 206.734,230.400 205.662 C 231.060 204.589,231.600 203.416,231.600 203.056 C 231.600 202.695,231.752 202.400,231.937 202.400 C 232.122 202.400,232.617 201.725,233.037 200.900 C 233.457 200.075,233.892 199.310,234.004 199.200 C 234.116 199.090,234.566 198.280,235.004 197.400 C 235.442 196.520,235.890 195.710,236.000 195.600 C 236.221 195.379,237.065 193.834,238.953 190.200 C 239.639 188.880,240.335 187.740,240.500 187.667 C 240.854 187.509,240.908 186.400,240.562 186.400 C 240.431 186.400,239.576 187.113,238.662 187.984 C 231.693 194.623,220.167 201.898,209.800 206.200 C 207.820 207.022,205.633 207.943,204.940 208.247 C 204.246 208.551,203.427 208.800,203.120 208.800 C 202.812 208.800,202.389 208.948,202.180 209.129 C 201.971 209.310,200.810 209.760,199.600 210.129 C 198.390 210.497,196.590 211.048,195.600 211.352 C 193.792 211.908,186.561 213.669,183.200 214.373 C 181.399 214.750,175.607 215.577,169.179 216.375 C 167.298 216.609,164.553 216.800,163.079 216.800 C 160.729 216.800,159.565 217.255,160.833 217.678 C 161.311 217.837,160.287 219.997,159.085 221.369 C 158.691 221.817,158.266 222.593,158.141 223.092 C 158.016 223.591,157.753 224.000,157.557 224.000 C 157.360 224.000,157.200 224.208,157.200 224.463 C 157.200 224.718,156.300 226.344,155.200 228.076 C 154.100 229.809,153.200 231.327,153.200 231.450 C 153.200 231.573,152.840 232.131,152.400 232.691 C 151.960 233.250,151.600 234.024,151.600 234.411 C 151.600 234.798,151.339 235.215,151.019 235.337 C 150.699 235.460,150.097 236.244,149.681 237.080 C 148.497 239.460,147.423 241.381,147.154 241.600 C 147.019 241.710,146.781 242.205,146.627 242.700 C 146.472 243.195,146.178 243.600,145.973 243.600 C 145.768 243.600,145.600 243.870,145.600 244.200 C 145.600 244.530,145.423 244.800,145.208 244.800 C 144.992 244.800,144.702 245.250,144.564 245.800 C 144.426 246.350,144.153 246.800,143.957 246.800 C 143.760 246.800,143.600 247.070,143.600 247.400 C 143.600 247.730,143.423 248.000,143.208 248.000 C 142.992 248.000,142.702 248.450,142.564 249.000 C 142.426 249.550,142.153 250.000,141.957 250.000 C 141.760 250.000,141.600 250.257,141.600 250.571 C 141.600 250.886,141.375 251.384,141.100 251.679 C 140.606 252.208,139.975 253.272,138.538 256.000 C 138.132 256.770,137.696 257.490,137.570 257.600 C 137.443 257.710,136.993 258.430,136.570 259.200 C 136.146 259.970,135.685 260.690,135.544 260.800 C 135.403 260.910,134.896 261.720,134.418 262.600 C 133.940 263.480,133.101 264.920,132.554 265.800 C 132.007 266.680,131.349 267.895,131.092 268.500 C 130.835 269.105,130.484 269.600,130.312 269.600 C 130.141 269.600,130.000 269.870,130.000 270.200 C 130.000 270.530,129.823 270.800,129.608 270.800 C 129.392 270.800,129.102 271.250,128.964 271.800 C 128.826 272.350,128.572 272.800,128.400 272.800 C 128.228 272.800,127.974 273.250,127.836 273.800 C 127.698 274.350,127.408 274.800,127.192 274.800 C 126.977 274.800,126.800 275.070,126.800 275.400 C 126.800 275.730,126.640 276.000,126.443 276.000 C 126.247 276.000,125.974 276.450,125.836 277.000 C 125.698 277.550,125.408 278.000,125.192 278.000 C 124.977 278.000,124.800 278.177,124.800 278.393 C 124.800 278.722,122.564 282.686,121.186 284.800 C 120.971 285.130,120.671 285.670,120.520 286.000 C 120.369 286.330,120.010 286.838,119.722 287.129 C 119.435 287.419,119.200 287.914,119.200 288.229 C 119.200 288.543,119.020 288.800,118.800 288.800 C 118.580 288.800,118.400 289.070,118.400 289.400 C 118.400 289.730,118.223 290.000,118.008 290.000 C 117.792 290.000,117.502 290.450,117.364 291.000 C 117.226 291.550,116.974 292.000,116.803 292.000 C 116.633 292.000,116.384 292.315,116.250 292.700 C 116.117 293.085,115.456 294.300,114.783 295.400 C 114.109 296.500,113.456 297.715,113.332 298.100 C 113.208 298.485,112.948 298.800,112.753 298.800 C 112.559 298.800,112.400 299.075,112.400 299.411 C 112.400 300.343,110.197 304.501,109.250 305.356 C 108.273 306.239,104.800 311.700,104.800 312.354 C 104.800 312.599,104.640 312.800,104.443 312.800 C 104.247 312.800,103.974 313.250,103.836 313.800 C 103.698 314.350,103.408 314.800,103.192 314.800 C 102.977 314.800,102.800 315.070,102.800 315.400 C 102.800 315.730,102.623 316.000,102.408 316.000 C 102.192 316.000,101.902 316.450,101.764 317.000 C 101.626 317.550,101.353 318.000,101.157 318.000 C 100.960 318.000,100.800 318.257,100.800 318.571 C 100.800 318.886,100.568 319.381,100.285 319.671 C 99.455 320.523,98.400 323.035,98.400 324.160 C 98.400 324.732,98.220 325.200,98.000 325.200 C 97.459 325.200,97.494 326.606,98.062 327.705 C 98.316 328.197,98.649 328.870,98.802 329.200 C 98.954 329.530,99.601 330.070,100.240 330.400 C 100.878 330.730,101.460 331.135,101.533 331.300 C 101.743 331.772,156.400 331.673,156.400 331.200 C 156.400 330.980,156.668 330.800,156.997 330.800 C 157.846 330.800,159.631 328.798,160.800 326.536 C 161.350 325.471,161.935 324.540,162.100 324.467 C 162.265 324.393,162.400 324.078,162.400 323.767 C 162.400 323.455,162.577 323.200,162.792 323.200 C 163.008 323.200,163.298 322.750,163.436 322.200 C 163.574 321.650,163.833 321.200,164.012 321.200 C 164.190 321.200,164.455 320.660,164.600 320.000 C 164.745 319.340,165.029 318.800,165.232 318.800 C 165.434 318.800,165.600 318.552,165.600 318.249 C 165.600 317.946,165.870 317.474,166.200 317.200 C 166.530 316.926,166.800 316.364,166.800 315.951 C 166.800 315.538,166.980 315.200,167.200 315.200 C 167.420 315.200,167.600 314.930,167.600 314.600 C 167.600 314.270,167.768 314.000,167.973 314.000 C 168.178 314.000,168.472 313.603,168.626 313.119 C 168.780 312.634,169.152 311.991,169.453 311.690 C 169.754 311.389,170.000 310.886,170.000 310.571 C 170.000 310.257,170.180 310.000,170.400 310.000 C 170.620 310.000,170.800 309.745,170.800 309.433 C 170.800 309.122,170.935 308.807,171.100 308.733 C 171.265 308.660,171.734 307.970,172.141 307.200 C 173.806 304.055,175.335 301.388,175.581 301.200 C 175.724 301.090,176.155 300.370,176.538 299.600 C 177.462 297.742,179.258 294.651,179.560 294.400 C 179.781 294.215,180.199 293.484,181.957 290.200 C 182.311 289.540,182.721 288.909,182.868 288.796 C 183.016 288.684,183.260 288.099,183.412 287.496 C 183.563 286.893,183.831 286.400,184.008 286.400 C 184.184 286.400,184.708 285.635,185.172 284.700 C 185.635 283.765,186.256 282.685,186.551 282.300 C 187.056 281.642,189.408 281.600,225.904 281.600 L 264.719 281.600 264.933 283.300 C 265.051 284.235,265.440 286.620,265.797 288.600 C 266.155 290.580,266.544 293.055,266.662 294.100 C 266.781 295.145,267.017 296.000,267.187 296.000 C 267.357 296.000,267.626 297.485,267.784 299.300 C 267.942 301.115,268.215 302.780,268.390 303.000 C 268.746 303.445,268.972 304.817,269.610 310.400 C 269.849 312.490,270.202 314.560,270.395 315.000 C 270.706 315.708,271.145 318.375,271.860 323.900 C 271.981 324.835,272.219 325.600,272.388 325.600 C 272.557 325.600,272.795 326.216,272.918 326.970 C 273.155 328.430,274.979 330.800,275.866 330.800 C 276.160 330.800,276.400 330.980,276.400 331.200 C 276.400 331.463,286.067 331.600,304.600 331.600 C 323.133 331.600,332.800 331.463,332.800 331.200 C 332.800 330.980,333.062 330.800,333.382 330.800 C 334.312 330.800,336.000 328.854,336.000 327.782 C 336.000 327.242,336.180 326.800,336.400 326.800 C 336.620 326.800,336.800 326.170,336.800 325.400 C 336.800 324.630,336.639 324.000,336.442 324.000 C 336.245 324.000,335.956 322.560,335.800 320.800 C 335.644 319.040,335.355 317.600,335.158 317.600 C 334.961 317.600,334.800 316.891,334.800 316.024 C 334.800 315.157,334.635 314.345,334.434 314.221 C 334.233 314.096,333.941 312.643,333.786 310.992 C 333.632 309.340,333.365 307.902,333.193 307.796 C 333.022 307.690,332.755 306.342,332.600 304.800 C 332.445 303.258,332.157 301.897,331.959 301.775 C 331.762 301.653,331.600 300.843,331.600 299.976 C 331.600 299.109,331.452 298.400,331.270 298.400 C 331.089 298.400,330.745 296.825,330.505 294.900 C 330.266 292.975,329.767 289.870,329.397 288.000 C 329.026 286.130,328.629 283.970,328.514 283.200 C 328.399 282.430,328.167 281.620,327.997 281.400 C 327.828 281.180,327.561 279.694,327.404 278.098 C 327.247 276.503,326.957 275.097,326.759 274.975 C 326.562 274.853,326.400 274.144,326.400 273.400 C 326.400 272.656,326.238 271.947,326.041 271.825 C 325.843 271.703,325.552 270.297,325.393 268.702 C 325.234 267.106,324.980 265.710,324.829 265.600 C 324.584 265.422,324.040 262.575,323.338 257.800 C 323.209 256.920,322.972 256.110,322.813 256.000 C 322.654 255.890,322.310 254.270,322.048 252.400 C 321.176 246.162,321.112 245.802,320.789 245.400 C 320.613 245.180,320.340 243.695,320.182 242.100 C 320.025 240.505,319.761 239.200,319.595 239.200 C 319.430 239.200,319.168 237.851,319.013 236.203 C 318.859 234.554,318.567 233.104,318.366 232.979 C 318.165 232.855,318.000 232.144,318.000 231.400 C 318.000 230.656,317.835 229.945,317.634 229.821 C 317.433 229.696,317.141 228.243,316.986 226.592 C 316.832 224.940,316.546 223.490,316.352 223.371 C 316.159 223.251,316.000 222.544,316.000 221.800 C 316.000 221.056,315.844 220.351,315.653 220.232 C 315.461 220.114,315.178 218.730,315.023 217.156 C 314.868 215.583,314.581 214.004,314.386 213.648 C 314.191 213.291,313.829 211.560,313.581 209.800 C 312.820 204.384,312.715 203.813,312.401 203.400 C 312.234 203.180,311.967 201.740,311.808 200.200 C 311.649 198.660,311.402 197.220,311.259 197.000 C 311.117 196.780,310.771 195.250,310.490 193.600 C 310.210 191.950,309.874 189.970,309.743 189.200 C 309.612 188.430,309.364 187.620,309.192 187.400 C 309.020 187.180,308.750 185.782,308.592 184.294 C 308.435 182.806,308.147 181.491,307.953 181.371 C 307.759 181.251,307.600 180.443,307.600 179.576 C 307.600 178.709,307.443 178.000,307.252 178.000 C 307.060 178.000,306.775 176.699,306.618 175.108 C 306.462 173.517,306.213 172.032,306.067 171.808 C 305.820 171.431,305.177 167.942,304.554 163.600 C 304.412 162.610,304.159 161.620,303.992 161.400 C 303.825 161.180,303.561 159.694,303.404 158.098 C 303.247 156.503,302.957 155.097,302.759 154.975 C 302.562 154.853,302.400 154.043,302.400 153.176 C 302.400 152.309,302.241 151.600,302.047 151.600 C 301.853 151.600,301.568 150.251,301.413 148.603 C 301.259 146.954,300.991 145.518,300.819 145.412 C 300.646 145.305,300.381 143.958,300.229 142.418 C 300.078 140.878,299.784 139.514,299.577 139.386 C 299.370 139.258,299.200 138.443,299.200 137.576 C 299.200 136.709,299.039 136.000,298.842 136.000 C 298.645 136.000,298.356 134.560,298.200 132.800 C 298.044 131.040,297.755 129.600,297.558 129.600 C 297.361 129.600,297.200 128.880,297.200 128.000 C 297.200 127.120,297.039 126.400,296.842 126.400 C 296.645 126.400,296.355 124.915,296.197 123.100 C 296.040 121.285,295.771 119.620,295.600 119.400 C 295.429 119.180,295.161 117.694,295.004 116.098 C 294.847 114.503,294.557 113.097,294.359 112.975 C 294.162 112.853,294.000 112.073,294.000 111.243 C 294.000 110.413,293.865 109.599,293.700 109.434 C 293.535 109.270,293.188 107.845,292.929 106.268 C 292.670 104.690,292.167 101.960,291.810 100.200 C 291.454 98.440,291.059 96.370,290.934 95.600 C 290.808 94.830,290.570 94.020,290.405 93.800 C 290.240 93.580,289.983 92.725,289.834 91.900 C 289.685 91.075,289.392 90.400,289.182 90.400 C 288.972 90.400,288.800 90.196,288.800 89.947 C 288.800 89.368,287.235 88.000,286.572 88.000 C 286.294 88.000,285.992 87.775,285.900 87.500 C 285.628 86.682,254.000 86.524,254.000 87.341 M179.000 111.600 C 178.864 111.820,179.134 112.000,179.600 112.000 C 180.066 112.000,180.336 111.820,180.200 111.600 C 180.064 111.380,179.794 111.200,179.600 111.200 C 179.406 111.200,179.136 111.380,179.000 111.600 " stroke="none" fill="#fbab04" fill-rule="evenodd"></path><path id="path1" d="M102.400 62.400 C 102.400 62.620,102.084 62.800,101.697 62.800 C 100.777 62.800,98.400 65.405,98.400 66.413 C 98.400 66.846,98.240 67.200,98.044 67.200 C 97.682 67.200,97.610 67.500,96.710 72.800 C 96.429 74.450,96.081 75.982,95.936 76.204 C 95.791 76.426,95.542 78.095,95.383 79.913 C 95.225 81.730,94.939 83.314,94.748 83.432 C 94.556 83.551,94.400 84.357,94.400 85.224 C 94.400 86.091,94.241 86.800,94.047 86.800 C 93.853 86.800,93.568 88.149,93.413 89.797 C 93.259 91.446,92.967 92.896,92.766 93.021 C 92.565 93.145,92.400 93.856,92.400 94.600 C 92.400 95.344,92.235 96.055,92.034 96.179 C 91.833 96.304,91.541 97.754,91.387 99.403 C 91.232 101.051,90.968 102.400,90.800 102.400 C 90.632 102.400,90.368 103.749,90.213 105.397 C 90.059 107.046,89.767 108.496,89.566 108.621 C 89.365 108.745,89.200 109.546,89.200 110.400 C 89.200 111.254,89.041 112.051,88.847 112.171 C 88.653 112.291,88.366 113.592,88.208 115.063 C 88.051 116.533,87.779 118.021,87.604 118.368 C 87.201 119.169,86.485 123.070,86.147 126.306 C 86.003 127.678,85.753 128.800,85.590 128.800 C 85.427 128.800,85.168 130.149,85.013 131.797 C 84.859 133.446,84.567 134.896,84.366 135.021 C 84.165 135.145,84.000 135.856,84.000 136.600 C 84.000 137.344,83.835 138.055,83.634 138.179 C 83.433 138.304,83.141 139.754,82.987 141.403 C 82.832 143.051,82.566 144.400,82.395 144.400 C 82.223 144.400,81.956 145.840,81.800 147.600 C 81.644 149.360,81.355 150.800,81.158 150.800 C 80.961 150.800,80.800 151.419,80.800 152.176 C 80.800 152.933,80.644 153.649,80.453 153.768 C 80.261 153.886,79.976 155.291,79.819 156.891 C 79.661 158.491,79.387 159.980,79.211 160.200 C 79.034 160.420,78.794 161.320,78.677 162.200 C 78.003 167.271,77.419 170.625,77.179 170.800 C 77.029 170.910,76.775 172.260,76.614 173.800 C 76.453 175.340,76.180 176.780,76.008 177.000 C 75.836 177.220,75.588 178.030,75.457 178.800 C 74.699 183.264,74.114 186.273,73.901 186.800 C 73.650 187.423,73.480 188.286,72.677 193.000 C 72.415 194.540,72.083 195.980,71.941 196.200 C 71.798 196.420,71.552 197.818,71.394 199.306 C 71.235 200.794,70.947 202.109,70.753 202.229 C 70.559 202.349,70.400 203.078,70.400 203.850 C 70.400 204.621,70.226 205.577,70.014 205.974 C 69.801 206.371,69.505 208.160,69.356 209.948 C 69.207 211.737,68.931 213.200,68.742 213.200 C 68.554 213.200,68.400 213.909,68.400 214.776 C 68.400 215.643,68.238 216.453,68.041 216.575 C 67.843 216.697,67.555 218.058,67.400 219.600 C 67.245 221.142,66.972 222.494,66.793 222.604 C 66.614 222.715,66.341 224.154,66.187 225.803 C 66.032 227.451,65.747 228.800,65.553 228.800 C 65.359 228.800,65.200 229.509,65.200 230.376 C 65.200 231.243,65.035 232.055,64.834 232.179 C 64.633 232.304,64.341 233.754,64.187 235.403 C 64.032 237.051,63.766 238.400,63.595 238.400 C 63.423 238.400,63.156 239.840,63.000 241.600 C 62.844 243.360,62.555 244.800,62.358 244.800 C 62.161 244.800,62.000 245.352,62.000 246.026 C 62.000 246.701,61.826 247.577,61.614 247.974 C 61.401 248.371,61.105 250.160,60.956 251.948 C 60.807 253.737,60.549 255.200,60.383 255.200 C 60.217 255.200,59.980 255.965,59.857 256.900 C 59.341 260.823,58.628 264.614,58.371 264.800 C 58.220 264.910,57.966 266.306,57.807 267.902 C 57.648 269.497,57.357 270.903,57.159 271.025 C 56.962 271.147,56.800 271.856,56.800 272.600 C 56.800 273.344,56.638 274.053,56.441 274.175 C 56.243 274.297,55.953 275.703,55.796 277.298 C 55.639 278.894,55.372 280.380,55.203 280.600 C 55.033 280.820,54.792 281.630,54.666 282.400 C 54.540 283.170,54.237 285.060,53.992 286.600 C 53.747 288.140,53.391 289.760,53.200 290.200 C 52.830 291.055,52.078 295.930,51.738 299.687 C 51.479 302.535,52.511 305.346,53.678 304.975 C 54.075 304.849,54.400 304.938,54.400 305.173 C 54.400 305.408,54.670 305.600,55.000 305.600 C 55.330 305.600,55.600 305.735,55.600 305.900 C 55.600 306.175,64.772 306.175,96.639 305.900 C 109.003 305.794,109.180 305.766,110.046 303.816 C 110.245 303.367,110.849 302.280,111.387 301.400 C 111.925 300.520,112.373 299.305,112.383 298.700 C 112.392 298.095,112.557 297.600,112.748 297.600 C 112.940 297.600,113.226 296.115,113.384 294.300 C 113.542 292.485,113.814 290.820,113.988 290.600 C 114.162 290.380,114.409 289.570,114.537 288.800 C 115.559 282.616,115.838 281.222,116.100 280.963 C 116.265 280.800,116.400 280.064,116.400 279.328 C 116.400 278.592,116.575 277.677,116.790 277.295 C 117.004 276.913,117.373 275.430,117.609 274.000 C 118.826 266.643,119.023 265.636,119.300 265.363 C 119.465 265.200,119.600 264.387,119.600 263.557 C 119.600 262.727,119.765 261.945,119.966 261.821 C 120.167 261.696,120.459 260.246,120.613 258.597 C 120.768 256.949,121.035 255.600,121.207 255.600 C 121.379 255.600,121.614 254.835,121.729 253.900 C 122.342 248.930,122.988 245.200,123.236 245.200 C 123.391 245.200,123.644 243.760,123.800 242.000 C 123.956 240.240,124.245 238.800,124.442 238.800 C 124.639 238.800,124.800 238.181,124.800 237.424 C 124.800 236.667,124.965 235.945,125.166 235.821 C 125.367 235.696,125.659 234.246,125.813 232.597 C 125.968 230.949,126.234 229.600,126.405 229.600 C 126.577 229.600,126.844 228.160,127.000 226.400 C 127.156 224.640,127.445 223.200,127.642 223.200 C 127.839 223.200,128.000 222.581,128.000 221.824 C 128.000 221.067,128.180 220.336,128.400 220.200 C 128.620 220.064,128.800 219.423,128.800 218.776 L 128.800 217.600 144.100 217.553 C 152.515 217.527,159.548 217.531,159.730 217.563 C 159.911 217.594,159.957 217.454,159.832 217.252 C 159.707 217.049,160.278 216.786,161.102 216.666 C 161.926 216.546,163.680 216.265,165.000 216.043 C 166.320 215.820,169.380 215.448,171.800 215.217 C 174.220 214.985,177.190 214.624,178.400 214.414 C 184.869 213.291,187.348 212.780,190.800 211.858 C 192.890 211.299,195.410 210.637,196.400 210.387 C 197.390 210.137,198.560 209.781,199.000 209.597 C 199.440 209.413,200.700 208.956,201.800 208.582 C 202.900 208.208,204.367 207.654,205.060 207.351 C 205.754 207.048,206.431 206.800,206.565 206.800 C 207.338 206.800,219.175 201.029,222.307 199.124 C 223.686 198.286,224.909 197.600,225.024 197.600 C 225.139 197.600,225.451 197.419,225.717 197.198 C 225.983 196.977,227.960 195.539,230.112 194.003 C 232.264 192.467,234.694 190.595,235.512 189.844 C 239.407 186.269,240.262 185.618,241.071 185.609 C 241.551 185.604,242.181 185.336,242.471 185.014 C 243.559 183.808,244.000 183.227,244.000 183.001 C 244.000 182.873,244.720 182.083,245.600 181.246 C 246.777 180.126,247.200 179.405,247.200 178.516 C 247.200 177.851,247.525 176.879,247.922 176.354 C 250.979 172.315,254.825 165.275,257.184 159.400 C 257.891 157.640,258.615 155.840,258.792 155.400 C 260.202 151.909,262.037 145.000,262.988 139.600 C 263.357 137.510,263.860 134.900,264.107 133.800 C 264.713 131.101,264.726 114.351,264.124 112.000 C 263.870 111.010,263.364 108.940,262.999 107.400 C 262.634 105.860,262.189 104.240,262.010 103.800 C 261.831 103.360,261.369 102.100,260.984 101.000 C 260.050 98.334,258.406 95.340,255.540 91.084 C 254.238 89.150,253.283 87.390,253.417 87.172 C 253.949 86.311,244.690 77.600,243.242 77.600 C 242.999 77.600,242.800 77.432,242.800 77.227 C 242.800 77.022,242.395 76.726,241.900 76.570 C 241.405 76.413,240.727 75.996,240.394 75.643 C 240.060 75.289,239.250 74.711,238.594 74.357 C 237.937 74.004,236.770 73.374,236.000 72.957 C 235.230 72.541,234.542 72.071,234.471 71.913 C 234.400 71.755,233.725 71.510,232.971 71.368 C 232.217 71.227,231.600 70.951,231.600 70.755 C 231.600 70.560,231.351 70.400,231.046 70.400 C 230.741 70.400,229.976 70.131,229.346 69.802 C 228.716 69.474,227.795 69.204,227.300 69.202 C 226.805 69.201,226.400 69.020,226.400 68.800 C 226.400 68.580,226.051 68.400,225.624 68.400 C 225.197 68.400,224.742 68.230,224.614 68.023 C 224.486 67.816,223.576 67.525,222.591 67.378 C 221.606 67.230,220.800 66.963,220.800 66.783 C 220.800 66.604,219.808 66.334,218.595 66.182 C 217.382 66.030,216.291 65.748,216.171 65.553 C 216.051 65.359,215.459 65.200,214.856 65.200 C 214.253 65.200,213.589 65.031,213.380 64.824 C 213.171 64.617,211.560 64.321,209.800 64.165 C 208.040 64.010,206.507 63.741,206.393 63.568 C 206.279 63.395,203.708 63.125,200.680 62.968 C 197.652 62.811,195.080 62.529,194.964 62.341 C 194.655 61.841,102.400 61.900,102.400 62.400 M174.734 110.351 C 175.028 110.537,175.208 110.849,175.134 111.045 C 174.913 111.630,177.266 111.706,178.900 111.167 C 180.046 110.789,180.538 110.778,180.882 111.122 C 181.214 111.454,181.486 111.461,181.865 111.146 C 182.578 110.554,183.646 111.014,183.350 111.785 C 183.070 112.515,183.841 112.628,184.136 111.900 C 184.289 111.524,184.444 111.548,184.763 112.000 C 185.051 112.407,185.190 112.439,185.194 112.100 C 185.197 111.825,185.380 111.600,185.600 111.600 C 185.820 111.600,186.000 111.857,186.000 112.172 C 186.000 112.622,186.266 112.668,187.242 112.388 C 188.304 112.083,188.513 112.145,188.688 112.816 C 188.924 113.719,189.243 113.797,189.920 113.120 C 190.293 112.747,190.400 112.747,190.400 113.120 C 190.400 113.384,190.748 113.600,191.173 113.600 C 191.605 113.600,192.063 113.968,192.211 114.434 C 192.415 115.079,192.694 115.213,193.438 115.026 C 194.150 114.848,194.400 114.949,194.400 115.416 C 194.400 115.763,194.564 115.946,194.765 115.822 C 195.375 115.444,197.595 116.950,197.597 117.743 C 197.599 118.336,197.802 118.436,198.600 118.236 C 199.503 118.009,199.600 118.103,199.600 119.205 C 199.600 119.921,199.848 120.520,200.200 120.655 C 200.530 120.782,200.800 121.064,200.800 121.282 C 200.800 121.656,201.508 123.398,202.541 125.563 C 203.137 126.813,203.127 139.546,202.530 139.930 C 202.299 140.079,202.011 140.740,201.890 141.400 C 201.582 143.073,200.795 146.044,200.407 147.000 C 200.228 147.440,199.793 148.457,199.441 149.260 C 199.088 150.064,198.800 150.919,198.800 151.160 C 198.800 151.402,198.634 151.600,198.432 151.600 C 198.229 151.600,197.945 152.140,197.800 152.800 C 197.655 153.460,197.410 154.000,197.254 154.000 C 197.099 154.000,196.628 154.585,196.206 155.300 C 195.147 157.098,194.987 157.283,191.600 160.623 C 188.045 164.129,186.858 165.200,186.526 165.200 C 186.070 165.200,181.001 167.797,180.867 168.100 C 180.793 168.265,180.461 168.400,180.127 168.400 C 179.560 168.400,177.480 169.204,175.914 170.029 C 175.536 170.227,174.186 170.509,172.914 170.655 C 171.641 170.802,170.484 171.099,170.342 171.317 C 170.182 171.561,164.588 171.771,155.742 171.865 C 147.854 171.949,140.361 172.070,139.091 172.135 C 137.589 172.211,136.832 172.104,136.925 171.826 C 137.003 171.592,137.322 171.400,137.633 171.400 C 138.222 171.400,138.436 170.537,139.322 164.600 C 139.585 162.840,139.946 161.175,140.124 160.900 C 140.311 160.611,140.268 160.400,140.024 160.400 C 139.791 160.400,139.600 160.040,139.600 159.600 C 139.600 159.160,139.736 158.800,139.902 158.800 C 140.864 158.800,142.073 152.339,141.211 151.807 C 140.887 151.607,141.015 151.325,141.620 150.901 C 142.388 150.363,142.469 150.038,142.264 148.310 C 142.072 146.691,142.172 146.182,142.815 145.492 C 143.261 145.013,143.600 144.088,143.600 143.348 C 143.600 142.633,143.780 141.936,144.000 141.800 C 144.616 141.420,144.475 140.343,143.739 139.805 C 142.978 139.248,143.387 138.233,144.240 138.560 C 144.780 138.767,145.052 136.901,144.812 134.645 C 144.767 134.230,144.951 133.754,145.220 133.588 C 145.489 133.421,145.798 132.366,145.906 131.243 C 146.013 130.119,146.259 129.200,146.451 129.200 C 146.643 129.200,146.800 128.491,146.800 127.624 C 146.800 126.757,146.967 125.944,147.170 125.818 C 147.374 125.692,147.667 123.972,147.822 121.995 C 147.977 120.018,148.260 118.400,148.452 118.400 C 148.643 118.400,148.800 117.691,148.800 116.824 C 148.800 115.957,149.003 115.122,149.250 114.969 C 149.539 114.790,149.623 113.935,149.483 112.580 C 149.363 111.418,149.370 110.363,149.499 110.234 C 149.871 109.863,174.141 109.975,174.734 110.351 " stroke="none" fill="#fcfbfb" fill-rule="evenodd"></path><path id="path2" d="M149.200 110.976 C 149.200 111.293,149.380 111.664,149.600 111.800 C 149.820 111.936,150.000 111.857,150.000 111.624 C 150.000 111.335,153.939 111.200,162.400 111.200 C 170.400 111.200,174.800 111.058,174.800 110.800 C 174.800 110.542,170.267 110.400,162.000 110.400 C 151.122 110.400,149.200 110.487,149.200 110.976 M181.981 111.217 C 181.661 111.418,181.062 111.477,180.650 111.348 C 180.161 111.196,179.995 111.269,180.174 111.557 C 180.506 112.095,183.200 112.154,183.200 111.624 C 183.200 111.020,182.609 110.823,181.981 111.217 M186.800 112.800 C 187.583 113.306,188.400 113.306,188.400 112.800 C 188.400 112.580,187.905 112.403,187.300 112.406 C 186.443 112.411,186.332 112.498,186.800 112.800 M194.800 115.936 C 194.800 116.220,195.361 116.576,197.300 117.520 C 197.465 117.601,197.600 117.491,197.600 117.277 C 197.600 117.062,197.150 116.774,196.600 116.636 C 196.050 116.498,195.600 116.208,195.600 115.992 C 195.600 115.777,195.420 115.600,195.200 115.600 C 194.980 115.600,194.800 115.751,194.800 115.936 M144.800 134.400 C 144.800 134.840,144.980 135.200,145.200 135.200 C 145.420 135.200,145.600 134.840,145.600 134.400 C 145.600 133.960,145.420 133.600,145.200 133.600 C 144.980 133.600,144.800 133.960,144.800 134.400 M142.000 146.776 C 142.000 147.203,142.180 147.664,142.400 147.800 C 142.627 147.940,142.800 147.604,142.800 147.024 C 142.800 146.461,142.620 146.000,142.400 146.000 C 142.180 146.000,142.000 146.349,142.000 146.776 M139.600 159.600 C 139.600 160.040,139.780 160.400,140.000 160.400 C 140.220 160.400,140.400 160.040,140.400 159.600 C 140.400 159.160,140.220 158.800,140.000 158.800 C 139.780 158.800,139.600 159.160,139.600 159.600 M53.600 305.056 C 53.600 305.366,54.881 306.370,55.300 306.387 C 55.465 306.394,55.600 306.220,55.600 306.000 C 55.600 305.780,55.330 305.600,55.000 305.600 C 54.670 305.600,54.400 305.420,54.400 305.200 C 54.400 304.980,54.220 304.800,54.000 304.800 C 53.780 304.800,53.600 304.915,53.600 305.056 M107.516 305.818 C 107.396 305.937,96.116 306.024,82.449 306.009 C 65.783 305.991,57.600 306.117,57.600 306.391 C 57.600 306.835,105.864 306.986,107.500 306.548 C 107.995 306.415,108.400 306.148,108.400 305.953 C 108.400 305.562,107.855 305.478,107.516 305.818 " stroke="none" fill="#dbc698" fill-rule="evenodd"></path><path id="path3" d="M253.612 87.411 C 253.605 87.637,254.512 89.077,255.628 90.611 C 256.743 92.145,258.105 94.273,258.655 95.340 C 259.204 96.407,259.751 97.182,259.870 97.063 C 260.124 96.809,257.654 92.656,255.817 90.249 C 255.111 89.325,254.330 88.216,254.079 87.785 C 253.829 87.353,253.619 87.185,253.612 87.411 M260.000 97.749 C 260.000 97.830,260.453 98.865,261.006 100.049 C 262.022 102.221,261.979 101.404,260.947 98.935 C 260.475 97.804,260.000 97.210,260.000 97.749 M262.175 103.000 C 262.335 103.440,262.749 104.928,263.093 106.307 C 263.437 107.686,263.809 108.724,263.920 108.613 C 264.204 108.330,262.780 103.086,262.288 102.600 C 262.015 102.331,261.978 102.461,262.175 103.000 M264.280 111.400 C 264.768 115.547,265.179 117.166,264.955 114.058 C 264.839 112.440,264.586 110.730,264.394 110.258 C 264.164 109.693,264.125 110.082,264.280 111.400 M265.344 122.400 C 265.344 124.490,265.412 125.345,265.494 124.300 C 265.576 123.255,265.576 121.545,265.494 120.500 C 265.412 119.455,265.344 120.310,265.344 122.400 M264.642 131.100 C 264.494 132.805,264.291 134.830,264.189 135.600 C 264.010 136.970,264.014 136.975,264.388 135.826 C 264.819 134.504,265.419 128.000,265.110 128.000 C 265.000 128.000,264.790 129.395,264.642 131.100 M263.418 139.418 C 263.265 140.439,263.230 141.363,263.340 141.473 C 263.450 141.583,263.665 140.839,263.818 139.818 C 263.971 138.798,264.006 137.873,263.896 137.763 C 263.786 137.653,263.571 138.398,263.418 139.418 M262.449 144.000 C 262.416 144.330,262.289 145.050,262.167 145.600 C 261.975 146.464,262.007 146.503,262.399 145.888 C 262.648 145.497,262.775 144.777,262.681 144.288 C 262.586 143.800,262.482 143.670,262.449 144.000 M261.474 147.870 C 261.002 149.596,260.798 150.800,260.977 150.800 C 261.258 150.800,262.087 147.553,261.863 147.329 C 261.758 147.225,261.583 147.468,261.474 147.870 M260.229 152.229 C 260.081 152.815,260.038 153.372,260.132 153.466 C 260.227 153.560,260.424 153.158,260.571 152.571 C 260.719 151.985,260.762 151.428,260.668 151.334 C 260.573 151.240,260.376 151.642,260.229 152.229 M259.244 155.244 C 258.998 155.951,258.866 156.600,258.952 156.685 C 259.038 156.771,259.309 156.262,259.556 155.556 C 259.802 154.849,259.934 154.200,259.848 154.115 C 259.762 154.029,259.491 154.538,259.244 155.244 M257.684 159.271 C 257.203 160.410,256.886 161.420,256.981 161.514 C 257.150 161.684,258.041 159.762,258.579 158.065 C 259.081 156.484,258.571 157.171,257.684 159.271 M255.084 165.014 C 254.271 166.656,253.693 168.000,253.798 168.000 C 254.065 168.000,256.885 162.351,256.706 162.173 C 256.627 162.093,255.897 163.372,255.084 165.014 M251.993 170.682 C 251.276 171.957,249.995 173.974,249.145 175.165 C 248.295 176.356,247.600 177.501,247.600 177.710 C 247.600 177.919,248.224 177.183,248.986 176.075 C 251.215 172.834,253.660 168.726,253.471 168.538 C 253.375 168.442,252.710 169.407,251.993 170.682 M239.170 187.043 C 237.682 188.644,230.701 194.185,227.584 196.238 C 226.053 197.247,224.800 198.157,224.800 198.260 C 224.800 198.470,224.954 198.383,227.909 196.505 C 231.540 194.197,241.358 186.000,240.492 186.000 C 240.298 186.000,239.703 186.470,239.170 187.043 M221.578 199.925 C 220.143 200.764,218.635 201.578,218.227 201.734 C 217.819 201.891,217.582 202.115,217.700 202.233 C 217.935 202.469,222.262 200.217,223.698 199.112 C 225.153 197.992,224.375 198.290,221.578 199.925 M215.600 203.197 C 214.830 203.617,212.344 204.731,210.075 205.672 C 207.806 206.613,206.115 207.438,206.318 207.506 C 206.752 207.651,216.343 203.417,216.946 202.814 C 217.532 202.228,217.206 202.321,215.600 203.197 M204.100 208.048 C 203.385 208.254,202.800 208.527,202.800 208.655 C 202.800 208.982,204.921 208.420,205.380 207.972 C 205.814 207.547,205.837 207.546,204.100 208.048 M198.400 210.088 C 197.630 210.316,197.205 210.579,197.457 210.671 C 197.708 210.763,198.518 210.574,199.257 210.251 C 200.819 209.570,200.409 209.491,198.400 210.088 M194.200 211.415 C 192.616 211.963,192.614 211.966,194.000 211.738 C 194.770 211.612,195.670 211.354,196.000 211.166 C 196.881 210.664,196.030 210.782,194.200 211.415 M190.200 212.400 L 189.400 212.744 190.200 212.744 C 190.640 212.744,191.360 212.589,191.800 212.400 L 192.600 212.056 191.800 212.056 C 191.360 212.056,190.640 212.211,190.200 212.400 M186.445 213.232 C 185.479 213.422,184.579 213.693,184.445 213.834 C 184.142 214.152,187.502 213.618,188.600 213.174 C 189.622 212.761,188.721 212.785,186.445 213.232 M180.600 214.400 L 179.400 214.705 180.800 214.725 C 181.570 214.735,182.560 214.589,183.000 214.400 C 184.064 213.943,182.397 213.943,180.600 214.400 M174.600 215.255 C 170.825 215.733,170.334 216.054,173.800 215.778 C 176.770 215.542,180.237 214.874,178.400 214.892 C 177.850 214.897,176.140 215.061,174.600 215.255 M164.600 216.400 L 162.600 216.674 164.600 216.714 C 165.700 216.736,167.320 216.605,168.200 216.423 L 169.800 216.092 168.200 216.109 C 167.320 216.118,165.700 216.249,164.600 216.400 " stroke="none" fill="#fcc95c" fill-rule="evenodd"></path><path id="path4" d="M254.800 90.000 C 255.270 90.660,255.744 91.200,255.854 91.200 C 255.964 91.200,255.670 90.660,255.200 90.000 C 254.730 89.340,254.256 88.800,254.146 88.800 C 254.036 88.800,254.330 89.340,254.800 90.000 M257.423 93.931 C 258.232 95.289,258.974 96.400,259.072 96.400 C 259.379 96.400,257.094 92.410,256.509 91.924 C 256.203 91.670,256.614 92.573,257.423 93.931 M261.446 102.200 C 261.588 102.860,261.880 103.580,262.097 103.800 C 262.355 104.063,262.389 103.857,262.197 103.200 C 261.723 101.585,261.151 100.823,261.446 102.200 M262.456 105.000 C 262.456 105.440,262.611 106.160,262.800 106.600 L 263.144 107.400 263.144 106.600 C 263.144 106.160,262.989 105.440,262.800 105.000 L 262.456 104.200 262.456 105.000 M263.474 109.200 C 263.608 110.190,263.872 111.360,264.061 111.800 C 264.277 112.306,264.310 111.938,264.151 110.800 C 264.012 109.810,263.748 108.640,263.564 108.200 C 263.357 107.706,263.323 108.088,263.474 109.200 M155.700 110.299 C 159.165 110.366,164.835 110.366,168.300 110.299 C 171.765 110.233,168.930 110.178,162.000 110.178 C 155.070 110.178,152.235 110.233,155.700 110.299 M264.600 122.600 C 264.600 127.440,264.719 130.500,264.865 129.400 C 265.011 128.300,265.130 125.240,265.130 122.600 C 265.130 119.960,265.011 116.900,264.865 115.800 C 264.719 114.700,264.600 117.760,264.600 122.600 M263.889 134.000 C 263.736 134.550,263.628 135.630,263.649 136.400 C 263.686 137.746,263.701 137.731,264.047 136.000 C 264.451 133.977,264.328 132.423,263.889 134.000 M143.400 138.800 C 143.085 139.310,143.504 140.002,144.124 139.994 C 144.411 139.990,144.362 139.832,144.000 139.594 C 143.467 139.244,143.467 139.156,144.000 138.806 C 144.362 138.568,144.411 138.410,144.124 138.406 C 143.862 138.403,143.536 138.580,143.400 138.800 M262.600 141.600 C 262.446 142.510,262.411 143.344,262.521 143.454 C 262.631 143.564,262.846 142.910,263.000 142.000 C 263.154 141.090,263.189 140.256,263.079 140.146 C 262.969 140.036,262.754 140.690,262.600 141.600 M261.633 145.833 C 261.375 146.859,261.239 147.772,261.331 147.864 C 261.422 147.956,261.709 147.192,261.967 146.167 C 262.225 145.141,262.361 144.228,262.269 144.136 C 262.178 144.044,261.891 144.808,261.633 145.833 M260.673 149.353 C 260.523 149.745,260.411 150.366,260.425 150.733 C 260.442 151.175,260.581 151.074,260.837 150.434 C 261.049 149.903,261.161 149.282,261.085 149.054 C 261.009 148.827,260.824 148.961,260.673 149.353 M259.600 153.000 C 259.336 153.799,259.215 154.548,259.331 154.664 C 259.447 154.780,259.730 154.193,259.960 153.360 C 260.503 151.392,260.223 151.112,259.600 153.000 M257.180 159.500 C 256.678 160.765,255.745 162.853,255.107 164.140 C 254.469 165.428,254.022 166.556,254.113 166.647 C 254.287 166.820,257.687 159.663,258.174 158.100 C 258.726 156.328,258.076 157.243,257.180 159.500 M251.337 171.100 C 250.686 172.145,249.823 173.540,249.420 174.200 L 248.686 175.400 249.681 174.230 C 250.689 173.046,252.984 169.200,252.683 169.200 C 252.593 169.200,251.987 170.055,251.337 171.100 M247.772 176.587 C 247.416 177.130,247.187 177.736,247.262 177.934 C 247.338 178.132,247.692 177.688,248.049 176.947 C 248.814 175.362,248.684 175.194,247.772 176.587 M238.767 186.909 C 237.980 187.619,236.656 188.796,235.825 189.525 C 234.995 190.253,234.385 190.918,234.469 191.002 C 234.553 191.086,235.919 189.983,237.505 188.550 C 239.090 187.117,240.558 186.050,240.766 186.179 C 240.974 186.308,241.258 186.230,241.396 186.007 C 241.974 185.071,240.090 185.718,238.767 186.909 M230.646 193.618 C 227.200 196.193,226.333 196.971,228.200 195.814 C 230.555 194.355,234.774 190.962,233.900 191.231 C 233.845 191.248,232.381 192.322,230.646 193.618 M223.497 198.366 C 221.685 199.528,221.686 199.756,223.500 198.841 C 224.435 198.370,225.200 197.897,225.200 197.792 C 225.200 197.449,224.623 197.644,223.497 198.366 M216.900 202.012 C 216.405 202.211,216.000 202.470,216.000 202.587 C 216.000 202.975,216.637 202.808,217.424 202.213 C 218.308 201.543,218.185 201.496,216.900 202.012 M213.477 203.696 C 212.640 204.131,212.037 204.571,212.138 204.672 C 212.343 204.876,215.600 203.296,215.600 202.992 C 215.600 202.686,215.105 202.850,213.477 203.696 M210.042 205.234 C 209.515 205.445,209.184 205.717,209.307 205.840 C 209.429 205.962,210.040 205.786,210.665 205.447 C 211.921 204.766,211.539 204.635,210.042 205.234 M205.242 207.234 C 204.715 207.445,204.384 207.717,204.507 207.840 C 204.629 207.962,205.240 207.786,205.865 207.447 C 207.121 206.766,206.739 206.635,205.242 207.234 M201.105 208.763 C 199.100 209.497,197.902 210.315,199.598 209.792 C 201.024 209.352,203.876 208.055,203.400 208.063 C 203.180 208.067,202.147 208.382,201.105 208.763 M195.600 210.488 C 194.830 210.716,194.389 210.973,194.620 211.058 C 194.851 211.144,195.751 210.953,196.620 210.635 C 198.431 209.972,197.695 209.866,195.600 210.488 M191.800 211.600 L 191.000 211.944 191.800 211.944 C 192.240 211.944,192.960 211.789,193.400 211.600 L 194.200 211.256 193.400 211.256 C 192.960 211.256,192.240 211.411,191.800 211.600 M188.480 212.395 C 187.754 212.567,187.034 212.839,186.880 213.000 C 186.568 213.327,188.953 212.877,190.200 212.373 C 191.212 211.965,190.243 211.977,188.480 212.395 M182.069 213.683 C 180.897 213.896,180.021 214.154,180.122 214.255 C 180.332 214.465,185.600 213.603,185.600 213.359 C 185.600 213.136,184.543 213.233,182.069 213.683 M176.000 214.800 L 175.000 215.120 176.000 215.113 C 176.550 215.109,177.540 214.968,178.200 214.800 L 179.400 214.495 178.200 214.487 C 177.540 214.483,176.550 214.624,176.000 214.800 M167.452 215.637 C 165.281 215.816,163.391 216.077,163.252 216.218 C 162.953 216.520,169.901 216.037,172.200 215.595 C 174.327 215.186,172.752 215.201,167.452 215.637 " stroke="none" fill="#fcecc4" fill-rule="evenodd"></path></g></svg>